<svg width="0" height="0" class="hidden">
  <symbol xmlns="http://www.w3.org/2000/svg" viewBox="0 0 137 68" id="logo">
    <path
      d="M42.4196 51.2823C41.1432 47.7342 38.5165 45.9597 34.5395 45.959H33.2847V67.8451H34.5395C37.6134 67.8451 39.8822 66.6335 41.3459 64.2102C42.5791 62.1419 43.1958 59.5101 43.1958 56.3147C43.1928 54.414 42.9341 52.7366 42.4196 51.2823Z"
      fill="white"></path>
    <path
      d="M20.8837 51.5447C22.1616 55.0929 24.7879 56.8669 28.7628 56.8669H30.0176V34.9809H28.7628C25.6889 34.9809 23.4201 36.1925 21.9563 38.6157C20.7267 40.6833 20.1116 43.3151 20.1109 46.5112C20.1109 48.4097 20.3685 50.0876 20.8837 51.5447Z"
      fill="white"></path>
    <path d="M0 0.0274658H16.6978V5.82393H5.99408V8.72217H14.8864V14.2222H5.99408V17.1534H16.6978V22.9499H0V0.0274658Z"
      fill="white"></path>
    <path d="M25.095 0H46.7L35.8975 23.4164L25.095 0ZM35.8975 20.5182L44.8227 1.21857H27.0052L35.8975 20.5182Z"
      fill="white"></path>
    <path
      d="M55.3288 0.0274658H72.0266V5.82393H61.3229V8.72217H70.2152V14.2222H61.3229V17.1534H72.0266V22.9499H55.3288V0.0274658Z"
      fill="white"></path>
    <path d="M82.3022 22.9169V0H83.5866L99.5928 15.578V0H100.811V22.9224L82.3022 22.9169Z" fill="white"></path>
    <path d="M118.3 22.9499V5.82393H109.638V0.0274658H128.147V5.82393H119.485V22.9499H118.3Z" fill="white"></path>
    <path
      d="M9.8463 39.5489C11.2954 39.5489 12.4481 39.7684 13.3044 40.2075C14.2882 40.6875 15.1146 41.4383 15.6864 42.3718C16.2581 43.3053 16.5515 44.3826 16.532 45.4771C16.538 46.5321 16.2408 47.5667 15.6757 48.4576C15.1015 49.3714 14.2944 50.116 13.3374 50.6149C14.5257 51.034 15.5669 51.7891 16.3344 52.7885C17.131 53.7769 17.5615 55.0102 17.553 56.2796C17.5614 57.3889 17.2591 58.4785 16.6802 59.4248C16.1141 60.3647 15.3141 61.1419 14.3583 61.6808C13.8509 61.9533 13.3077 62.1529 12.7445 62.2737C12.1517 62.4054 11.3613 62.4713 10.3733 62.4713H0.229431V39.5489H9.8463Z"
      fill="white"></path>
    <path
      d="M48.462 60.8081C46.7384 59.3041 45.8876 57.048 45.9096 54.04H51.2779C51.2559 55.2915 51.6292 56.2466 52.3977 56.9053C53.1661 57.564 54.242 57.8934 55.6252 57.8934C56.767 57.8934 57.6672 57.7067 58.3259 57.3335C58.9846 56.9602 59.3139 56.3893 59.3139 55.6209C59.3139 54.9841 58.9791 54.5231 58.3094 54.2376C57.6698 53.9614 57.0016 53.757 56.3169 53.6283C55.6582 53.5076 55.252 53.4344 55.0983 53.4088C53.6062 53.1328 52.1407 52.7288 50.718 52.2012C49.5236 51.7571 48.4593 51.0211 47.6222 50.0604C46.7878 49.0944 46.3706 47.8209 46.3706 46.24C46.3706 44.6592 46.7878 43.3144 47.6222 42.2056C48.4565 41.0968 49.5708 40.2679 50.965 39.719C52.4198 39.159 53.9676 38.8796 55.5264 38.8956C57.5245 38.8956 59.2535 39.2689 60.7136 40.0154C62.1737 40.7619 63.3209 41.8927 64.1553 43.4077C64.5424 44.0484 64.7998 44.759 64.9128 45.499C64.9992 46.1486 65.0433 46.8032 65.0445 47.4586H59.6762C59.6762 46.273 59.3578 45.4002 58.7211 44.8403C58.0843 44.2804 57.0963 44.0005 55.757 44.0005C54.6811 44.0005 53.8468 44.1871 53.254 44.5604C52.6611 44.9336 52.3647 45.4386 52.3647 46.0754C52.3647 46.778 52.7599 47.2939 53.5504 47.6233C54.5214 48.007 55.5242 48.3046 56.5474 48.5125C58.5235 48.9077 60.0659 49.2865 61.1747 49.6488C62.2925 50.0172 63.2888 50.6833 64.0565 51.5754C64.8688 52.4976 65.275 53.793 65.275 55.4617C65.275 57.0425 64.8359 58.4038 63.9577 59.5456C63.0794 60.6873 61.9212 61.5601 60.4831 62.1639C59.0061 62.7753 57.4213 63.0833 55.8228 63.0696C52.6392 63.0659 50.1856 62.3121 48.462 60.8081Z"
      fill="white"></path>
    <path d="M78.7782 62.4713V45.3453H70.1164V39.5489H88.6256V45.3453H79.9638V62.4713H78.7782Z" fill="white"></path>
    <path
      d="M94.8502 39.5489H111.548V45.3453H100.844V48.2436H109.737V53.7436H100.844V56.6748H111.548V62.4713H94.8502V39.5489Z"
      fill="white"></path>
    <path
      d="M136.281 62.4713H118.661V39.5489H127.586C129.496 39.5489 131.055 39.8892 132.263 40.5698C133.416 41.1974 134.374 42.1321 135.029 43.2705C135.691 44.4222 136.032 45.7299 136.017 47.0579C136.033 48.7254 135.475 50.3475 134.436 51.6523C133.441 52.963 132.04 53.9069 130.451 54.3364L136.281 62.4713ZM119.879 41.5579V53.3813H128.343L119.879 41.5579ZM119.879 61.2527H133.975L129.167 54.567L128.146 54.5999H119.879V61.2527ZM120.736 40.7674L129.694 53.2825C131.132 52.995 132.425 52.2146 133.35 51.0759C134.3 49.9546 134.815 48.528 134.799 47.0579C134.812 45.8991 134.504 44.7592 133.909 43.7645C133.317 42.7769 132.446 41.9863 131.406 41.492C130.44 41.009 129.178 40.7674 127.619 40.7674H120.736Z"
      fill="white"></path>
  </symbol>
  <symbol fill="none" xmlns="http://www.w3.org/2000/svg" viewBox="0 0 29 21" id="ticket2">
    <path d="M3.22222 0.833496L0 0.833496L0 20.1668H3.22222L3.22222 0.833496Z"></path>
    <path d="M11.3266 0.833496L8.10439 0.833496L8.10439 20.1668H11.3266L11.3266 0.833496Z"></path>
    <path d="M16.2088 0.833496L12.9866 0.833496L12.9866 20.1668H16.2088L16.2088 0.833496Z"></path>
    <path d="M28.9999 0.833496L24.2154 0.833496L24.2154 20.1668H28.9999L28.9999 0.833496Z"></path>
    <path d="M6.44449 0.833496L4.88219 0.833496L4.88219 20.1668H6.44449L6.44449 0.833496Z"></path>
    <path d="M19.3333 0.833496L17.771 0.833496L17.771 20.1668H19.3333L19.3333 0.833496Z"></path>
    <path d="M22.5555 0.833496L20.9932 0.833496L20.9932 20.1668H22.5555L22.5555 0.833496Z"></path>
  </symbol>
  <symbol xmlns="http://www.w3.org/2000/svg" viewBox="0 0 13 8" id="polygon-1">
    <path d="M6.5 8L0.00480968 0.5L12.9952 0.499999L6.5 8Z" fill="#939393"></path>
  </symbol>
  <symbol xmlns="http://www.w3.org/2000/svg" viewBox="0 0 12 12" id="search-icon">
    <path
      d="M1.509 1.50905C2.48213 0.535922 3.77595 0 5.15213 0C6.52831 0 7.82213 0.535922 8.79523 1.50905C9.76833 2.48215 10.3043 3.77597 10.3043 5.15213C10.3043 6.41032 9.85606 7.59949 9.03556 8.53786L11.8969 11.3992C12.0343 11.5366 12.0343 11.7595 11.8969 11.8969C11.8282 11.9656 11.7381 12 11.648 12C11.558 12 11.4679 11.9656 11.3992 11.8969L8.53786 9.03558C7.59949 9.85605 6.41032 10.3043 5.15213 10.3043C3.77592 10.3043 2.48215 9.76838 1.50902 8.79525C0.535922 7.82215 4.76841e-07 6.52833 4.76841e-07 5.15215C4.76841e-07 3.77597 0.535899 2.48215 1.509 1.50905ZM2.00672 8.29755C3.74112 10.0319 6.56311 10.0319 8.29751 8.29755C10.0319 6.56318 10.0319 3.74114 8.29751 2.00677C7.43023 1.13948 6.29135 0.705984 5.1521 0.705984C4.01313 0.705984 2.87379 1.1397 2.0067 2.00677C0.272367 3.74112 0.272368 6.56316 2.00672 8.29755Z"
      fill="#939393"></path>
  </symbol>
  <symbol fill="none" xmlns="http://www.w3.org/2000/svg" viewBox="0 0 7 10" id="Vector">
    <path
      d="M3.5 0C1.57011 0 0 1.55933 0 3.47595C0 5.88495 3.50344 10 3.50344 10C3.50344 10 7 5.76648 7 3.47595C7 1.55933 5.42995 0 3.5 0ZM4.55602 4.49371C4.26484 4.78284 3.88245 4.92743 3.5 4.92743C3.11761 4.92743 2.7351 4.78284 2.44404 4.49371C1.86173 3.91547 1.86173 2.97455 2.44404 2.39624C2.72601 2.11609 3.10108 1.96179 3.5 1.96179C3.89892 1.96179 4.27393 2.11615 4.55602 2.39624C5.13833 2.97455 5.13833 3.91547 4.55602 4.49371Z"
      fill="white"></path>
  </symbol>
  <symbol fill="none" xmlns="http://www.w3.org/2000/svg" viewBox="0 0 1 742" id="Line 1">
    <line x1="0.5" y1="-2.18557e-08" x2="0.500032" y2="742" stroke="#212121"></line>
  </symbol>
  <symbol fill="none" xmlns="http://www.w3.org/2000/svg" viewBox="0 0 1 1310" id="Line 3">
    <line x1="0.5" y1="-2.18557e-08" x2="0.500057" y2="1310" stroke="#212121"></line>
  </symbol>
  <symbol fill="none" xmlns="http://www.w3.org/2000/svg" viewBox="0 0 1 1267" id="Line 2 (1)">
    <line x1="0.5" y1="-2.18557e-08" x2="0.500055" y2="1267" stroke="#212121"></line>
  </symbol>
  <symbol fill="none" xmlns="http://www.w3.org/2000/svg" viewBox="0 0 1 893" id="Line 2">
    <line x1="0.5" y1="-2.18557e-08" x2="0.500039" y2="893" stroke="#212121"></line>
  </symbol>
  <symbol fill="none" xmlns="http://www.w3.org/2000/svg" viewBox="0 0 216 216" id="Ellipse 5">
    <circle cx="108" cy="108" r="107.5" stroke="#212121"></circle>
  </symbol>
  <symbol fill="none" xmlns="http://www.w3.org/2000/svg" viewBox="0 0 216 216" id="Ellipse 7">
    <circle cx="108" cy="108" r="107.5" stroke="#212121"></circle>
  </symbol>
  <symbol fill="none" xmlns="http://www.w3.org/2000/svg" viewBox="0 0 216 108" id="Ellipse 10">
    <circle cx="108" cy="108" r="107.5" stroke="#212121"></circle>
  </symbol>
  <symbol fill="none" xmlns="http://www.w3.org/2000/svg" viewBox="0 0 136 136" id="Ellipse 2">
    <g filter="url(#filter0_b_1_30)">
      <circle cx="68" cy="68" r="68" fill="url(#paint0_linear_1_30)" fill-opacity="0.03"></circle>
    </g>
    <defs>
      <filter id="filter0_b_1_30" x="-20" y="-20" width="176" height="176" filterUnits="userSpaceOnUse"
        color-interpolation-filters="sRGB">
        <feFlood flood-opacity="0" result="BackgroundImageFix"></feFlood>
        <feGaussianBlur in="BackgroundImage" stdDeviation="10"></feGaussianBlur>
        <feComposite in2="SourceAlpha" operator="in" result="effect1_backgroundBlur_1_30"></feComposite>
        <feBlend mode="normal" in="SourceGraphic" in2="effect1_backgroundBlur_1_30" result="shape"></feBlend>
      </filter>
      <linearGradient id="paint0_linear_1_30" x1="7.99997" y1="-20" x2="108" y2="165" gradientUnits="userSpaceOnUse">
        <stop stop-color="#C4C4C4"></stop>
        <stop offset="1" stop-color="#C4C4C4" stop-opacity="0"></stop>
      </linearGradient>
    </defs>
  </symbol>
  <symbol fill="none" xmlns="http://www.w3.org/2000/svg" viewBox="0 0 136 68" id="Ellipse 11">
    <g filter="url(#filter0_b_9_257)">
      <path
        d="M136 68C136 59.0701 134.241 50.2277 130.824 41.9775C127.406 33.7274 122.398 26.2311 116.083 19.9167C109.769 13.6024 102.273 8.59351 94.0224 5.17619C85.7723 1.75887 76.9299 -3.90338e-07 68 0C59.0701 3.90338e-07 50.2276 1.75887 41.9775 5.17619C33.7274 8.59351 26.2311 13.6024 19.9167 19.9167C13.6023 26.2311 8.59348 33.7274 5.17616 41.9775C1.75884 50.2277 -3.12983e-05 59.0701 -3.05176e-05 68L68 68H136Z"
        fill="url(#paint0_linear_9_257)" fill-opacity="0.03"></path>
    </g>
    <defs>
      <filter id="filter0_b_9_257" x="-20" y="-20" width="176" height="108" filterUnits="userSpaceOnUse"
        color-interpolation-filters="sRGB">
        <feFlood flood-opacity="0" result="BackgroundImageFix"></feFlood>
        <feGaussianBlur in="BackgroundImage" stdDeviation="10"></feGaussianBlur>
        <feComposite in2="SourceAlpha" operator="in" result="effect1_backgroundBlur_9_257"></feComposite>
        <feBlend mode="normal" in="SourceGraphic" in2="effect1_backgroundBlur_9_257" result="shape"></feBlend>
      </filter>
      <linearGradient id="paint0_linear_9_257" x1="7.99997" y1="-20" x2="108" y2="165" gradientUnits="userSpaceOnUse">
        <stop stop-color="#C4C4C4"></stop>
        <stop offset="1" stop-color="#C4C4C4" stop-opacity="0"></stop>
      </linearGradient>
    </defs>
  </symbol>
  <symbol fill="none" xmlns="http://www.w3.org/2000/svg" viewBox="0 0 136 136" id="Ellipse 8">
    <g filter="url(#filter0_b_9_250)">
      <circle cx="68" cy="68" r="68" fill="url(#paint0_linear_9_250)" fill-opacity="0.03"></circle>
    </g>
    <defs>
      <filter id="filter0_b_9_250" x="-20" y="-20" width="176" height="176" filterUnits="userSpaceOnUse"
        color-interpolation-filters="sRGB">
        <feFlood flood-opacity="0" result="BackgroundImageFix"></feFlood>
        <feGaussianBlur in="BackgroundImage" stdDeviation="10"></feGaussianBlur>
        <feComposite in2="SourceAlpha" operator="in" result="effect1_backgroundBlur_9_250"></feComposite>
        <feBlend mode="normal" in="SourceGraphic" in2="effect1_backgroundBlur_9_250" result="shape"></feBlend>
      </filter>
      <linearGradient id="paint0_linear_9_250" x1="8" y1="-20" x2="108" y2="165" gradientUnits="userSpaceOnUse">
        <stop stop-color="#C4C4C4"></stop>
        <stop offset="1" stop-color="#C4C4C4" stop-opacity="0"></stop>
      </linearGradient>
    </defs>
  </symbol>
  <symbol fill="none" xmlns="http://www.w3.org/2000/svg" viewBox="0 0 334 334" id="Ellipse 4">
    <mask id="path-1-inside-1_5_2249" fill="white">
      <path
        d="M334 -1.45996e-05C290.139 -1.26824e-05 246.707 8.63915 206.184 25.4242C165.661 42.2093 128.841 66.8116 97.8265 97.8263C66.8118 128.841 42.2095 165.661 25.4245 206.184C8.63939 246.706 0.000225707 290.139 0.000229541 334L334 334L334 -1.45996e-05Z">
      </path>
    </mask>
    <path
      d="M334 -1.45996e-05C290.139 -1.26824e-05 246.707 8.63915 206.184 25.4242C165.661 42.2093 128.841 66.8116 97.8265 97.8263C66.8118 128.841 42.2095 165.661 25.4245 206.184C8.63939 246.706 0.000225707 290.139 0.000229541 334L334 334L334 -1.45996e-05Z"
      stroke="#212121" stroke-width="2" mask="url(#path-1-inside-1_5_2249)"></path>
  </symbol>
  <symbol fill="none" xmlns="http://www.w3.org/2000/svg" viewBox="0 0 334 334" id="Ellipse 9">
    <mask id="path-1-inside-1_9_254" fill="white">
      <path
        d="M334 -1.45996e-05C290.139 -1.26824e-05 246.707 8.63915 206.184 25.4242C165.661 42.2093 128.841 66.8116 97.8265 97.8263C66.8118 128.841 42.2095 165.661 25.4245 206.184C8.63939 246.706 0.000225707 290.139 0.000229541 334L334 334L334 -1.45996e-05Z">
      </path>
    </mask>
    <path
      d="M334 -1.45996e-05C290.139 -1.26824e-05 246.707 8.63915 206.184 25.4242C165.661 42.2093 128.841 66.8116 97.8265 97.8263C66.8118 128.841 42.2095 165.661 25.4245 206.184C8.63939 246.706 0.000225707 290.139 0.000229541 334L334 334L334 -1.45996e-05Z"
      stroke="#212121" stroke-width="2" mask="url(#path-1-inside-1_9_254)"></path>
  </symbol>
  <symbol fill="none" xmlns="http://www.w3.org/2000/svg" viewBox="0 0 334 334" id="Ellipse 6">
    <mask id="path-1-inside-1_9_248" fill="white">
      <path
        d="M334 334C334 290.138 325.361 246.706 308.576 206.184C291.791 165.661 267.188 128.841 236.174 97.8263C205.159 66.8116 168.339 42.2093 127.816 25.4242C87.2935 8.63916 43.8615 -1.91725e-06 -1.45996e-05 0L0 334H334Z">
      </path>
    </mask>
    <path
      d="M334 334C334 290.138 325.361 246.706 308.576 206.184C291.791 165.661 267.188 128.841 236.174 97.8263C205.159 66.8116 168.339 42.2093 127.816 25.4242C87.2935 8.63916 43.8615 -1.91725e-06 -1.45996e-05 0L0 334H334Z"
      stroke="#212121" stroke-width="2" mask="url(#path-1-inside-1_9_248)"></path>
  </symbol>
  <symbol id="icon-close" viewBox="0 0 32 32">
    <path fill="#4c00fe" style="fill: var(--color1, #4c00fe)"
      d="M1.646 32c-0.422 0-0.843-0.16-1.163-0.483-0.643-0.643-0.643-1.685 0-2.328l28.707-28.707c0.643-0.643 1.685-0.643 2.328 0s0.643 1.685 0 2.329l-28.707 28.706c-0.323 0.321-0.744 0.483-1.165 0.483z">
    </path>
    <path fill="#4c00fe" style="fill: var(--color1, #4c00fe)"
      d="M30.355 32c-0.422 0-0.843-0.16-1.163-0.483l-28.709-28.706c-0.643-0.643-0.643-1.686 0-2.329s1.685-0.643 2.329 0l28.707 28.707c0.643 0.643 0.643 1.685 0 2.328-0.323 0.321-0.744 0.483-1.163 0.483z">
    </path>
  </symbol>
  <symbol id="icon-close2" viewBox="0 0 33 32" aria-hidden="true"
    style="position: absolute; width: 0; height: 0; overflow: hidden;" version="1.1" xmlns="http://www.w3.org/2000/svg"
    xmlns:xlink="http://www.w3.org/1999/xlink">
    <path
      d="M2.747 32c-0.422 0-0.845-0.16-1.166-0.483-0.644-0.643-0.644-1.685 0-2.328l28.768-28.707c0.644-0.643 1.689-0.643 2.333 0s0.644 1.685 0 2.329l-28.768 28.706c-0.323 0.321-0.746 0.483-1.168 0.483v0z">
    </path>
    <path
      d="M31.517 32c-0.422 0-0.844-0.16-1.166-0.483l-28.77-28.706c-0.644-0.643-0.644-1.686 0-2.329s1.689-0.643 2.334 0l28.768 28.707c0.644 0.643 0.644 1.685 0 2.328-0.323 0.321-0.745 0.483-1.165 0.483z">
    </path>
  </symbol>
</svg>